<svg width="33" height="32" viewBox="0 0 33 32" fill="none" xmlns="http://www.w3.org/2000/svg">
<path fill-rule="evenodd" clip-rule="evenodd" d="M28.5203 4.62325C27.3207 3.40187 18.2585 0.234375 16.5315 0.234375C14.8029 0.234375 5.74081 3.40187 4.54422 4.62325C3.79311 5.3868 3.6139 6.04036 3.60083 7.98437L3.60126 8.57613C3.6048 9.09873 3.6155 9.70148 3.62796 10.4031L3.62809 10.4104L3.6292 10.4751C3.65654 12.0489 3.69363 14.1832 3.69363 17.1179C3.69363 20.2382 4.71759 22.773 6.17994 24.8022L7.96627 23.2882C6.78927 21.6184 5.98013 19.5763 5.98013 17.1179C5.98013 14.169 5.9432 12.0264 5.91587 10.4413L5.91458 10.367C5.85513 7.06289 5.86581 6.56937 6.14323 6.28537C7.08374 5.48612 15.2389 2.56228 16.5315 2.56228C17.8241 2.56228 25.9808 5.48612 26.903 6.26985C26.9939 6.3619 27.0577 6.4726 27.1009 6.67896H29.409C29.3135 5.68459 29.0707 5.18353 28.5203 4.62325ZM29.4481 9.64466H27.1621C27.1585 9.86785 27.1545 10.1067 27.1499 10.3623C27.1209 11.9546 27.0828 14.1196 27.0828 17.1179C27.0828 25.1662 18.3562 28.7698 16.53 29.4325C15.5333 29.0728 12.4857 27.8434 9.92086 25.4905L8.12321 27.014C11.5985 30.3149 15.8994 31.6834 16.2007 31.7758C16.309 31.81 16.4203 31.8255 16.5315 31.8255C16.6428 31.8255 16.754 31.81 16.8623 31.7758C17.3729 31.6191 29.3694 27.7983 29.3694 17.1179C29.3694 14.1785 29.4064 12.0442 29.4337 10.4703L29.4349 10.4058L29.435 10.3987C29.4397 10.1335 29.4443 9.88255 29.4481 9.64466ZM21.2968 10.6694C21.0424 10.6694 20.8363 10.8794 20.8363 11.1384V12.8428C20.8363 13.1017 21.0424 13.3117 21.2968 13.3117H22.971C23.2253 13.3117 23.4315 13.1017 23.4315 12.8428V11.1384C23.4315 10.8794 23.2253 10.6694 22.971 10.6694H21.2968ZM18.7016 13.312C18.4473 13.312 18.241 13.522 18.241 13.7809V15.4853C18.241 15.7443 18.4473 15.9542 18.7016 15.9542H20.3757C20.63 15.9542 20.8363 15.7443 20.8363 15.4853V13.7809C20.8363 13.522 20.63 13.312 20.3757 13.312H18.7016ZM15.6458 16.3867C15.6458 16.1279 15.8521 15.9178 16.1064 15.9178H17.7804C18.0348 15.9178 18.241 16.1279 18.241 16.3867V18.0912C18.241 18.35 18.0348 18.5601 17.7804 18.5601H16.1064C15.8521 18.5601 15.6458 18.35 15.6458 18.0912V16.3867ZM13.5111 18.5603C13.2568 18.5603 13.0506 18.7703 13.0506 19.0293V20.7337C13.0506 20.9927 13.2568 21.2025 13.5111 21.2025H15.1853C15.4396 21.2025 15.6458 20.9927 15.6458 20.7337V19.0293C15.6458 18.7703 15.4396 18.5603 15.1853 18.5603H13.5111ZM10.4554 16.3867C10.4554 16.1279 10.6616 15.9178 10.916 15.9178H12.59C12.8445 15.9178 13.0506 16.1279 13.0506 16.3867V18.0912C13.0506 18.35 12.8445 18.5601 12.59 18.5601H10.916C10.6616 18.5601 10.4554 18.35 10.4554 18.0912V16.3867Z" fill="white"/>
</svg>
